<?xml version="1.0" standalone="no"?>
<!DOCTYPE svg PUBLIC "-//W3C//DTD SVG 20010904//EN"
 "http://www.w3.org/TR/2001/REC-SVG-20010904/DTD/svg10.dtd">
<svg version="1.0" xmlns="http://www.w3.org/2000/svg"
 width="715.000000pt" height="122.000000pt" viewBox="0 0 715.000000 122.000000"
 preserveAspectRatio="xMidYMid meet">

<g transform="translate(0.000000,122.000000) scale(0.100000,-0.100000)"
fill="#000000" stroke="none">
<path d="M1360 1141 c-30 -9 -87 -34 -126 -55 l-71 -37 -23 -102 c-17 -77 -24
-146 -27 -284 -5 -181 -1 -229 34 -396 l16 -78 81 -39 c45 -22 108 -47 141
-55 88 -22 228 -20 311 6 77 24 174 70 191 91 10 12 43 144 58 232 10 61 8
303 -4 381 -6 39 -20 109 -32 156 l-20 86 -77 41 c-42 22 -101 47 -131 56 -76
22 -248 21 -321 -3z m303 -26 c63 -16 186 -75 205 -97 19 -23 51 -174 62 -293
12 -132 0 -279 -32 -410 l-23 -90 -85 -43 c-187 -93 -358 -90 -545 11 l-60 32
-23 110 c-34 159 -35 393 -3 558 26 131 28 134 133 182 119 54 258 69 371 40z"/>
<path d="M1464 1110 c-70 -10 -118 -27 -195 -67 l-66 -34 -17 -75 c-42 -194
-45 -402 -6 -589 11 -53 22 -101 26 -106 3 -5 29 -21 57 -36 184 -93 344 -95
523 -8 78 38 79 38 108 180 34 167 29 360 -15 546 l-20 87 -67 35 c-111 58
-227 82 -328 67z m76 -50 c0 -6 -8 -10 -17 -8 -10 2 -19 -4 -21 -14 -2 -11 3
-18 13 -18 9 0 13 5 10 10 -3 6 1 10 9 10 22 0 20 -17 -3 -30 -15 -7 -23 -6
-35 6 -19 19 -20 26 -4 42 15 15 48 16 48 2z m65 -32 c7 -27 -7 -39 -20 -18
-3 5 -13 6 -21 3 -14 -5 -14 -2 1 27 18 35 30 31 40 -12z m-151 15 c-3 9 -2
17 4 17 10 0 24 -51 16 -59 -2 -2 -10 2 -19 9 -12 10 -15 10 -15 -4 0 -10 -4
-14 -10 -11 -5 3 -10 20 -10 37 0 31 0 31 20 13 18 -17 20 -17 14 -2z m191 -3
c-3 -5 -1 -11 5 -15 5 -3 10 -1 10 4 0 6 5 11 11 11 12 0 2 -40 -14 -55 -7 -7
-8 -4 -4 8 4 11 1 17 -8 17 -8 0 -15 -5 -15 -12 0 -6 -3 -9 -6 -5 -9 9 7 68
17 61 5 -3 7 -9 4 -14z m-245 1 c0 -5 -8 -12 -17 -14 -13 -3 -11 -5 6 -6 24
-1 24 -1 5 -17 -18 -15 -18 -15 4 -9 12 4 22 4 22 0 0 -3 -10 -9 -22 -14 -19
-7 -25 -4 -34 18 -9 22 -8 28 10 38 26 15 26 15 26 4z m-40 -69 c0 -8 -6 -12
-14 -9 -9 4 -16 -1 -18 -11 -3 -12 -9 -8 -22 17 -18 34 -18 34 3 28 15 -4 21
0 21 11 1 15 3 14 15 -2 8 -11 15 -26 15 -34z m390 8 c0 -16 -4 -30 -10 -30
-5 0 -10 5 -10 10 0 6 -10 10 -22 10 l-23 1 24 19 c32 27 41 25 41 -10z m48
-2 c14 -14 16 -32 3 -24 -5 3 -14 -1 -21 -9 -7 -8 -17 -15 -23 -15 -5 0 -2 9
7 19 10 11 15 25 11 30 -9 15 8 14 23 -1z m-535 -25 c-6 -16 -5 -17 12 -3 17
14 17 13 10 -10 -7 -23 -7 -24 10 -10 17 14 17 14 6 -7 -14 -28 -23 -29 -46
-3 -15 16 -15 22 -5 35 16 20 21 19 13 -2z m284 -55 c-3 -7 -5 -2 -5 12 0 14
2 19 5 13 2 -7 2 -19 0 -25z m73 -67 c0 -9 -8 -3 -19 15 -11 18 -24 35 -30 38
-6 4 -11 14 -11 23 0 9 12 1 30 -22 17 -21 30 -45 30 -54z m208 79 c6 0 12 -5
12 -11 0 -6 -7 -8 -16 -5 -8 3 -12 2 -9 -3 3 -5 1 -12 -3 -15 -5 -3 -7 -18 -4
-33 5 -27 5 -27 14 -4 9 26 31 24 37 -4 2 -13 -1 -16 -12 -12 -9 3 -17 1 -19
-5 -3 -7 -11 -9 -20 -5 -11 4 -16 18 -16 43 0 21 -5 40 -11 42 -22 7 -11 24
12 18 12 -3 28 -6 35 -6z m-558 -20 c13 -9 13 -10 0 -10 -13 0 -13 -1 0 -11
11 -8 12 -12 2 -16 -6 -2 -9 -10 -5 -15 4 -8 -2 -9 -18 -5 -13 4 -27 7 -31 7
-20 0 -5 20 15 20 20 1 20 2 5 11 -10 5 -18 14 -18 19 0 13 31 12 50 0z m110
-90 c0 -20 3 -40 7 -44 4 -3 7 -14 8 -24 1 -9 5 -42 10 -73 5 -38 3 -59 -4
-63 -6 -4 -11 -18 -11 -31 0 -13 -4 -27 -10 -30 -14 -9 -12 -25 3 -25 16 -1
50 -48 42 -60 -10 -16 -34 -11 -45 9 -5 11 -19 23 -30 26 -14 4 -20 15 -20 36
0 20 -4 28 -11 23 -9 -5 -10 1 -5 20 8 32 -1 69 -14 61 -6 -3 -7 21 -4 57 4
43 13 75 30 100 13 21 24 47 24 59 0 18 2 19 15 9 8 -7 15 -29 15 -50z m337
42 c1 -11 13 -37 28 -58 20 -29 26 -49 23 -76 -2 -20 0 -34 4 -32 4 2 6 -9 6
-26 -1 -23 -5 -29 -16 -25 -12 4 -14 -3 -10 -40 3 -24 2 -42 -3 -39 -5 3 -9
-9 -9 -25 0 -17 -5 -31 -12 -31 -7 0 -25 -12 -40 -27 -21 -20 -31 -24 -40 -15
-9 9 -5 18 18 39 26 25 28 32 19 58 -5 17 -14 36 -18 43 -5 7 -5 41 -1 75 4
34 7 67 6 74 -2 6 2 14 8 18 5 3 10 23 10 44 0 20 5 42 12 49 15 15 13 15 15
-6z m-457 -51 c0 -5 -6 -12 -12 -15 -10 -5 -10 -7 0 -12 6 -3 12 -14 12 -24 0
-10 -6 -20 -12 -23 -10 -3 -10 -8 -2 -18 5 -8 9 -20 8 -26 -1 -7 -2 -20 -3
-28 -1 -10 -11 -15 -33 -14 -31 2 -31 2 -5 6 35 6 37 39 2 55 -33 15 -32 27 5
34 33 7 31 24 -3 25 -12 0 -16 3 -9 6 6 2 12 11 12 18 0 7 -6 16 -12 18 -7 3
2 6 20 6 17 1 32 -3 32 -8z m239 -17 l31 -6 0 -69 c0 -38 -4 -69 -9 -69 -5 0
-16 -3 -24 -6 -12 -4 -18 8 -27 53 -6 32 -13 68 -16 81 -5 24 -2 25 45 16z
m111 -11 c0 -36 -23 -143 -30 -143 -33 0 -40 14 -40 80 0 63 2 69 23 73 42 8
47 7 47 -10z m258 5 c-3 -7 -10 -13 -16 -12 -57 5 -59 5 -32 14 38 12 52 11
48 -2z m-13 -27 c17 -7 16 -9 -9 -15 -31 -8 -42 -3 -31 13 7 12 12 13 40 2z
m25 -51 c0 -25 -20 -27 -21 -2 -1 14 -2 13 -7 -3 l-5 -20 -8 20 c-7 19 -8 19
-8 -2 -1 -31 -21 -29 -21 2 0 22 4 25 35 25 28 0 35 -4 35 -20z m-3 -56 c3 -8
0 -21 -7 -27 -9 -9 -11 -8 -8 8 2 12 -3 21 -14 23 -11 2 -18 -3 -18 -13 0 -9
5 -13 10 -10 6 3 10 -1 10 -9 0 -9 -4 -16 -9 -16 -16 0 -31 27 -25 44 8 21 53
21 61 0z m-627 -29 c10 -12 10 -18 0 -30 -27 -32 -71 -8 -56 30 3 8 14 15 24
15 11 0 25 -7 32 -15z m311 5 c36 -20 23 -40 -26 -40 -34 0 -45 4 -45 15 0 9
10 20 23 25 29 11 26 11 48 0z m319 -51 c0 -24 -20 -25 -21 -1 -1 14 -2 13 -7
-3 l-5 -20 -8 20 c-6 17 -8 17 -8 3 -1 -24 -21 -23 -21 0 0 26 6 29 40 24 21
-3 30 -10 30 -23z m-645 -19 c3 5 11 10 17 10 6 0 5 -6 -3 -16 -10 -13 -10
-17 0 -23 9 -6 3 -10 -18 -13 -17 -2 -31 -1 -31 4 0 4 6 8 13 8 6 0 4 5 -5 11
-25 14 -23 33 1 19 13 -7 22 -7 26 0z m345 -10 c39 -39 12 -100 -44 -100 -41
0 -56 15 -56 56 0 56 61 83 100 44z m268 -6 c12 -4 22 -14 22 -25 0 -23 -11
-29 -38 -22 -18 4 -20 8 -11 19 8 10 8 14 0 14 -6 0 -11 5 -11 10 0 11 6 12
38 4z m-578 -71 c0 -8 -14 -13 -35 -13 -29 0 -35 4 -35 22 0 21 0 21 15 2 13
-16 14 -16 9 -1 -3 9 -1 17 4 17 6 0 13 -8 15 -17 3 -12 5 -10 6 7 1 20 3 22
11 10 5 -8 10 -21 10 -27z m95 -25 c0 -13 13 -27 35 -39 23 -13 28 -19 16 -19
-25 0 -86 38 -86 54 0 15 22 38 29 30 3 -3 6 -15 6 -26z m378 -4 c-6 -15 -82
-59 -89 -51 -3 2 9 10 26 17 21 8 30 19 30 35 0 12 3 25 7 28 10 11 32 -13 26
-29z m117 26 c0 -6 -11 -8 -27 -4 -40 10 -41 14 -5 14 18 0 32 -5 32 -10z
m-585 -39 c0 -8 -6 -16 -13 -19 -8 -2 -10 3 -6 15 5 17 5 17 -6 1 -6 -10 -18
-18 -25 -18 -21 0 -19 28 3 33 28 8 47 3 47 -12z m214 0 c11 -7 9 -11 -9 -21
-12 -6 -24 -9 -28 -6 -3 3 0 6 6 6 7 0 12 4 12 10 0 5 -8 7 -17 4 -15 -5 -16
-4 -3 5 18 13 21 13 39 2z m151 -3 c0 -4 -6 -8 -14 -8 -8 0 -17 4 -20 8 -2 4
4 8 15 8 10 0 19 -4 19 -8z m196 -2 c20 -21 18 -23 -15 -18 -20 3 -28 8 -24
18 7 18 21 18 39 0z m-561 -61 c0 -13 -8 -21 -22 -23 -17 -3 -23 2 -23 16 0
10 3 22 7 26 13 13 38 1 38 -19z m276 16 c-8 -5 -20 -7 -28 -4 -21 8 -15 13
15 13 20 0 23 -3 13 -9z m283 -7 c8 -21 -1 -34 -24 -34 -25 0 -35 17 -20 35
16 20 36 19 44 -1z m-497 -55 c12 -12 -5 -59 -22 -59 -27 0 -36 17 -24 43 13
29 28 34 46 16z m428 1 c-3 -5 -13 -10 -20 -10 -9 0 -12 -6 -9 -15 4 -8 14
-15 23 -15 13 0 13 2 2 9 -10 6 -10 10 -1 16 6 4 17 2 23 -5 9 -9 7 -15 -8
-26 -22 -16 -34 -14 -49 8 -7 12 -6 21 3 32 15 17 46 22 36 6z m-61 -46 c9
-33 1 -41 -21 -23 -15 12 -16 12 -10 -3 3 -10 2 -18 -2 -18 -10 0 -21 24 -21
46 0 12 4 12 20 4 16 -9 18 -8 14 5 -4 8 -2 15 4 15 5 0 13 -12 16 -26z m-304
-15 c0 -26 -2 -30 -15 -19 -8 6 -19 9 -25 5 -16 -10 -12 6 7 27 23 26 33 22
33 -13z m70 -1 c0 7 5 12 10 12 6 0 8 -11 4 -27 -9 -38 -14 -41 -26 -19 -8 15
-12 16 -19 5 -7 -11 -9 -11 -9 3 0 9 3 24 7 34 6 16 7 16 20 -2 7 -10 13 -12
13 -6z m158 -10 c-2 -25 -8 -33 -23 -33 -15 0 -20 7 -22 30 l-2 30 12 -27 c15
-37 30 -36 22 2 -4 20 -3 30 5 30 7 0 10 -13 8 -32z m-71 6 c8 -20 -8 -48 -31
-52 -12 -3 -16 4 -16 32 0 30 4 36 20 36 11 0 23 -7 27 -16z"/>
<path d="M1210 600 c-12 -7 -12 -12 -2 -22 9 -9 15 -9 24 0 16 16 -2 34 -22
22z"/>
<path d="M1522 507 c-29 -31 -28 -44 6 -50 35 -7 41 0 35 41 -6 38 -12 40 -41
9z m18 -17 c0 -5 -5 -10 -11 -10 -5 0 -7 5 -4 10 3 6 8 10 11 10 2 0 4 -4 4
-10z"/>
<path d="M1310 290 c0 -5 5 -10 11 -10 5 0 7 5 4 10 -3 6 -8 10 -11 10 -2 0
-4 -4 -4 -10z"/>
<path d="M1305 260 c3 -5 8 -10 11 -10 2 0 4 5 4 10 0 6 -5 10 -11 10 -5 0 -7
-4 -4 -10z"/>
<path d="M1520 215 c0 -8 5 -15 10 -15 6 0 10 7 10 15 0 8 -4 15 -10 15 -5 0
-10 -7 -10 -15z"/>
<path d="M482 1079 c-162 -81 -248 -362 -175 -580 14 -44 29 -76 32 -71 3 6
55 9 124 7 l117 -3 0 29 c0 24 4 29 25 29 20 0 25 -5 25 -25 0 -19 -5 -25 -17
-23 -10 2 -22 -7 -29 -21 -11 -21 -19 -23 -90 -25 -43 -2 -95 1 -116 4 l-37 7
27 -37 c15 -21 32 -35 39 -33 10 4 8 10 -7 23 -18 15 -18 19 -5 24 11 4 14 2
9 -6 -5 -7 0 -9 14 -6 12 4 24 2 27 -3 3 -4 12 -6 20 -3 8 4 13 9 10 13 -2 4
12 8 33 9 28 1 33 -1 22 -9 -11 -7 -8 -8 13 -3 31 7 35 -3 10 -22 -17 -12 -16
-13 5 -14 18 0 22 5 22 30 0 17 5 30 10 30 6 0 10 6 10 14 0 7 10 16 23 20 41
11 57 7 57 -14 0 -15 -7 -20 -25 -20 -21 0 -25 -5 -25 -29 0 -17 -5 -33 -10
-36 -6 -4 -8 -11 -5 -16 4 -5 1 -9 -6 -9 -6 0 -9 8 -6 20 3 11 1 18 -4 14 -18
-11 -10 -44 11 -44 15 0 20 -7 20 -25 0 -20 -5 -25 -25 -25 -20 0 -25 5 -25
23 0 26 -6 28 -87 28 -29 -1 -55 4 -58 9 -3 6 -11 10 -16 10 -6 0 2 -10 18
-23 81 -67 217 -77 246 -18 8 15 12 34 10 42 -17 72 -16 79 11 79 21 0 26 -5
26 -25 0 -14 -5 -25 -11 -25 -6 0 -9 -13 -7 -30 2 -19 -3 -34 -12 -40 -9 -6
-10 -10 -3 -10 34 0 151 139 137 162 -4 6 -3 8 3 5 6 -4 20 26 34 71 68 225
-19 492 -186 572 -56 27 -147 26 -203 -1z m179 -60 c-8 -22 -10 -22 -16 -5 -5
11 -3 21 6 26 19 12 21 7 10 -21z m49 11 c0 -5 -4 -10 -9 -10 -5 0 -12 -10
-16 -22 l-8 -23 -4 24 c-3 13 1 27 9 32 18 12 28 11 28 -1z m-92 -84 c17 -20
33 -52 37 -76 6 -35 3 -46 -21 -77 -15 -20 -28 -49 -29 -65 -2 -32 -18 -54
-33 -44 -12 7 -9 52 6 89 16 38 15 48 -8 106 -12 33 -17 62 -14 88 9 61 15 72
24 40 5 -15 22 -43 38 -61z m-170 43 c-7 -20 -14 -27 -20 -21 -6 6 -6 17 1 31
18 32 31 25 19 -10z m65 20 c-6 -6 -9 -17 -6 -25 3 -8 -5 -16 -20 -19 -17 -5
-24 -12 -20 -21 3 -9 -2 -14 -16 -14 -21 0 -22 1 -4 25 10 13 21 25 26 25 4 0
7 9 7 20 0 14 7 20 22 20 16 0 19 -3 11 -11z m216 -25 c-13 -14 -25 -20 -27
-14 -7 20 7 40 29 40 l22 0 -24 -26z m43 -26 c-2 -11 3 -18 13 -18 20 0 14
-25 -6 -25 -8 0 -20 -4 -27 -9 -22 -13 -27 2 -7 24 20 22 8 28 -14 8 -11 -11
-13 -10 -7 5 3 10 6 23 6 29 0 5 10 8 23 6 15 -2 21 -9 19 -20z m-359 -25 c-4
-10 -9 -11 -16 -4 -5 5 -7 18 -3 28 6 14 9 15 16 4 4 -8 6 -21 3 -28z m30 -34
c-6 -6 -9 -18 -6 -25 3 -8 0 -21 -6 -28 -9 -11 -9 -15 0 -18 12 -4 4 -28 -9
-28 -12 0 -12 59 -1 66 8 4 7 9 -1 14 -8 5 -7 12 5 24 10 9 20 14 23 11 3 -3
1 -10 -5 -16z m-53 -10 c0 -11 -4 -17 -10 -14 -5 3 -10 13 -10 21 0 8 5 14 10
14 6 0 10 -9 10 -21z m409 2 c10 -6 10 -10 1 -16 -6 -4 -14 -4 -17 -1 -3 3
-12 1 -20 -6 -18 -15 -29 -2 -13 17 14 17 29 19 49 6z m-3 -45 c21 -21 18 -25
-18 -24 -44 1 -53 7 -31 24 23 17 31 17 49 0z m-409 -11 c8 -22 -6 -33 -17
-15 -13 20 -12 30 0 30 6 0 13 -7 17 -15z m410 -40 c7 -21 -4 -32 -19 -17 -7
7 -20 12 -30 12 -10 0 -18 5 -18 10 0 17 60 12 67 -5z m-399 -7 c16 -16 15
-28 -3 -28 -8 0 -15 2 -15 4 0 2 -3 11 -6 20 -7 19 7 21 24 4z m68 -38 c16
-14 19 -40 4 -40 -15 0 -43 67 -33 82 6 9 9 7 11 -9 2 -12 10 -27 18 -33z
m304 16 c0 -2 3 -11 6 -20 4 -11 1 -16 -10 -16 -9 0 -16 5 -16 10 0 6 -6 10
-14 10 -8 0 -18 5 -21 10 -4 6 7 10 24 10 17 0 31 -2 31 -4z m-40 -26 c12 0
19 -50 8 -56 -5 -3 -12 3 -15 15 -8 32 -20 25 -15 -9 5 -37 -5 -38 -35 -4 -24
28 -23 47 2 37 10 -3 15 1 15 12 0 12 5 15 16 11 9 -3 19 -6 24 -6z m-292 -17
c6 -19 -35 -16 -42 3 -4 11 0 15 16 12 12 -2 23 -9 26 -15z m82 -36 c0 -20
-25 1 -28 24 -2 23 -2 23 13 5 8 -11 15 -24 15 -29z m-51 4 c8 -5 9 -11 3 -15
-14 -8 -43 4 -36 15 7 11 15 11 33 0z m40 -36 c-9 -9 -23 -13 -32 -9 -24 9
-11 24 21 24 24 0 25 -2 11 -15z m221 -191 c0 -21 -4 -25 -22 -22 -15 2 -24
11 -26 26 -3 18 1 22 22 22 21 0 26 -5 26 -26z m97 20 c20 -5 20 -7 5 -25 -24
-28 -52 -25 -52 6 0 26 9 29 47 19z m-257 -17 c0 -8 -13 -13 -37 -14 -33 -1
-35 0 -13 7 20 6 15 8 -25 9 -31 0 -45 -3 -37 -8 10 -6 7 -10 -13 -15 -19 -5
-33 -2 -44 9 -10 8 -24 15 -32 15 -12 0 -11 -2 1 -11 12 -8 10 -9 -9 -7 -14 2
-26 8 -28 14 -3 8 31 12 117 13 94 2 120 -1 120 -12z m99 -4 c0 -11 -3 -13 -6
-5 -2 6 -10 9 -15 6 -7 -4 -8 -2 -4 4 11 18 26 14 25 -5z m101 8 c0 -12 -20
-25 -27 -18 -7 7 6 27 18 27 5 0 9 -4 9 -9z m10 -51 c0 -15 -7 -20 -25 -20
-18 0 -25 5 -25 20 0 15 7 20 25 20 18 0 25 -5 25 -20z m-60 0 c0 -5 -7 -10
-15 -10 -8 0 -15 5 -15 10 0 6 7 10 15 10 8 0 15 -4 15 -10z m100 0 c0 -5 -5
-10 -11 -10 -5 0 -7 -4 -4 -10 3 -5 -1 -20 -9 -32 l-16 -22 0 22 c0 13 5 32
10 43 11 20 30 26 30 9z m-144 -77 c5 -32 3 -48 -5 -51 -6 -2 -9 -8 -5 -13 3
-5 -1 -9 -10 -9 -17 0 -31 53 -19 72 8 13 9 18 12 38 0 6 5 10 10 10 6 0 13
-21 17 -47z m83 20 c-10 -11 -10 -14 -1 -9 19 12 14 -9 -8 -29 -19 -17 -20
-17 -20 -1 0 24 18 56 32 56 6 0 5 -6 -3 -17z m-196 -82 c4 0 7 -5 7 -11 0
-15 -43 -12 -66 4 -18 13 -16 14 16 12 19 -2 38 -4 43 -5z"/>
<path d="M528 273 c7 -3 16 -2 19 1 4 3 -2 6 -13 5 -11 0 -14 -3 -6 -6z"/>
<path d="M901 524 c0 -11 3 -14 6 -6 3 7 2 16 -1 19 -3 4 -6 -2 -5 -13z"/>
<path d="M280 485 c0 -5 5 -17 10 -25 5 -8 10 -10 10 -5 0 6 -5 17 -10 25 -5
8 -10 11 -10 5z"/>
<path d="M217 466 c-3 -8 -16 -16 -29 -19 -21 -4 -21 -4 -2 -6 21 -1 52 24 42
35 -3 3 -8 -2 -11 -10z"/>
<path d="M261 450 c-1 -15 -6 -31 -13 -38 -9 -9 -9 -12 0 -12 13 0 26 43 19
62 -3 7 -6 2 -6 -12z"/>
<path d="M867 435 c-9 -19 -15 -35 -12 -35 7 0 37 61 33 66 -3 2 -12 -12 -21
-31z"/>
<path d="M912 445 c0 -16 2 -22 5 -12 2 9 2 23 0 30 -3 6 -5 -1 -5 -18z"/>
<path d="M953 460 c2 -8 14 -16 28 -17 19 -1 20 -1 4 4 -11 3 -24 10 -28 17
-6 7 -7 6 -4 -4z"/>
<path d="M908 397 c-7 -8 -19 -12 -27 -9 -8 3 -11 0 -7 -7 4 -6 1 -11 -6 -11
-9 0 -9 -3 2 -10 12 -8 11 -10 -7 -10 -28 0 -30 -16 -4 -30 27 -14 30 -13 23
12 -4 18 -2 20 14 15 18 -7 18 -6 -1 9 -19 16 -19 16 10 11 17 -4 24 -4 18 -1
-17 8 -17 25 0 18 8 -3 14 2 14 11 0 19 -11 19 -29 2z"/>
<path d="M256 387 c-17 -12 -17 -15 -2 -29 9 -9 16 -23 16 -30 0 -10 2 -10 9
1 5 8 14 10 21 6 9 -5 11 -4 6 3 -4 7 -3 12 3 12 23 0 19 -18 -7 -29 l-27 -13
29 -15 c25 -13 30 -13 44 1 15 15 15 16 -1 16 -10 0 -14 5 -11 14 3 8 -3 20
-13 27 -10 8 -18 21 -18 29 0 20 -26 24 -49 7z m30 -35 c-4 -3 -12 0 -19 7 -9
9 -9 14 3 21 11 7 16 5 18 -6 2 -9 1 -18 -2 -22z"/>
<path d="M814 348 l-19 -23 23 19 c12 11 22 21 22 23 0 8 -8 2 -26 -19z"/>
<path d="M460 350 l-25 -8 25 0 c14 0 36 4 50 8 l25 8 -25 0 c-14 0 -36 -4
-50 -8z"/>
<path d="M390 305 c19 -19 36 -35 39 -35 3 0 -10 16 -29 35 -19 19 -36 35 -39
35 -3 0 10 -16 29 -35z"/>
<path d="M820 313 c0 -3 8 -15 18 -26 16 -19 16 -20 -6 -8 -31 17 -48 4 -26
-20 21 -23 42 -25 23 -2 -12 14 -12 16 2 11 9 -4 23 2 32 13 15 17 15 19 -3
29 -21 11 -40 13 -40 3z"/>
<path d="M769 293 c-13 -16 -12 -17 4 -4 16 13 21 21 13 21 -2 0 -10 -8 -17
-17z"/>
<path d="M347 279 c-9 -5 -23 -7 -30 -3 -6 4 0 -5 15 -20 16 -17 32 -25 39
-20 9 5 10 2 6 -9 -8 -21 0 -22 19 -3 16 16 19 30 5 22 -5 -3 -12 5 -15 19 -7
27 -12 29 -39 14z m33 -13 c0 -2 -8 -10 -17 -17 -16 -13 -17 -12 -4 4 13 16
21 21 21 13z"/>
<path d="M691 249 c-30 -16 -49 -29 -42 -29 16 0 88 37 96 50 3 5 5 9 3 9 -2
-1 -27 -15 -57 -30z"/>
<path d="M767 243 c4 -10 2 -14 -5 -9 -10 6 -81 -23 -82 -35 0 -3 7 -14 16
-25 15 -19 15 -19 11 2 -5 22 6 26 30 11 7 -4 24 0 38 9 29 19 29 19 15 45
-13 23 -32 26 -23 2z m-8 -27 c9 -11 8 -15 -4 -20 -9 -3 -13 -2 -10 4 3 6 1
10 -5 10 -6 0 -8 5 -5 10 8 13 10 13 24 -4z"/>
<path d="M416 211 c-17 -18 -16 -19 22 -16 34 2 39 0 35 -16 -4 -14 -1 -16 16
-12 16 4 20 2 16 -9 -4 -9 1 -14 15 -14 14 0 20 7 20 24 0 17 -4 22 -14 19 -8
-3 -17 1 -20 9 -3 8 -14 14 -25 14 -11 0 -23 5 -26 10 -9 15 -20 12 -39 -9z"/>
<path d="M568 213 c12 -2 32 -2 45 0 12 2 2 4 -23 4 -25 0 -35 -2 -22 -4z"/>
<path d="M633 193 c-17 -3 -23 -11 -23 -31 0 -21 2 -24 10 -12 9 13 11 13 20
0 8 -13 10 -12 10 4 0 19 0 19 13 1 10 -12 16 -14 21 -7 4 7 2 12 -4 12 -6 0
-8 5 -5 10 3 6 1 10 -5 10 -6 0 -8 5 -5 10 3 6 3 9 -2 9 -4 -1 -18 -4 -30 -6z"/>
<path d="M551 160 c0 -28 2 -31 9 -15 8 18 9 18 9 2 1 -28 21 -9 21 20 0 21
-3 23 -14 14 -11 -9 -15 -9 -19 1 -3 7 -5 -3 -6 -22z"/>
</g>
</svg>
